<svg width="70" height="70" viewBox="0 0 70 70" fill="none" xmlns="http://www.w3.org/2000/svg">
<circle cx="35" cy="35" r="35" fill="#F7D757"/>
<circle cx="35" cy="35" r="32" stroke="white" stroke-width="2"/>
<rect x="13.3686" y="33.625" width="9" height="16.875" rx="3" fill="#8CC153"/>
<path d="M20.388 43.2576L13.3468 41.489L24.5466 37.3067L20.388 43.2576Z" fill="#E9573F"/>
<rect x="13.3686" y="41.5" width="9" height="6.75" fill="#E9573F"/>
<rect x="13.3686" y="46" width="9" height="4.5" rx="2.25" fill="#E9573F"/>
<rect x="48.2436" y="33.625" width="9" height="16.875" rx="3" fill="#8CC153"/>
<path d="M50.2281 43.256L57.2693 41.4875L46.0695 37.3051L50.2281 43.256Z" fill="#E9573F"/>
<rect width="9" height="6.75" transform="matrix(-1 0 0 1 57.2475 41.4984)" fill="#E9573F"/>
<rect width="9" height="4.5" rx="2.25" transform="matrix(-1 0 0 1 57.2475 45.9984)" fill="#E9573F"/>
<rect x="21.2436" y="13.375" width="28.125" height="39.375" rx="3" fill="#FF9228"/>
<rect x="19.5561" y="41.5" width="31.5" height="13.5" rx="2" fill="#A0D468"/>
<circle cx="23.4936" cy="53.3125" r="1.125" fill="#8CC153"/>
<circle cx="26.8686" cy="53.3125" r="1.125" fill="#8CC153"/>
<circle cx="30.2436" cy="53.3125" r="1.125" fill="#8CC153"/>
<circle cx="33.6186" cy="53.3125" r="1.125" fill="#8CC153"/>
<circle cx="36.9936" cy="53.3125" r="1.125" fill="#8CC153"/>
<circle cx="40.3686" cy="53.3125" r="1.125" fill="#8CC153"/>
<circle cx="43.7436" cy="53.3125" r="1.125" fill="#8CC153"/>
<circle cx="47.1186" cy="53.3125" r="1.125" fill="#8CC153"/>
<rect x="19.5561" y="47.125" width="31.5" height="2.25" fill="#8CC153"/>
<rect x="31.9311" y="46" width="6.75" height="1.125" fill="#8CC153"/>
<rect width="1.87952" height="1.125" transform="matrix(-0.707107 -0.707107 -0.707107 0.707107 40.0086 47.3289)" fill="#8CC153"/>
<rect x="30.6036" y="47.3289" width="1.87952" height="1.125" transform="rotate(-45 30.6036 47.3289)" fill="#8CC153"/>
<rect x="41.4824" y="23.5" width="3.375" height="12.375" fill="#656D78"/>
<rect x="41.4824" y="26.875" width="3.375" height="2.25" fill="#434A54"/>
<path d="M43.2515 38.1617C43.2116 38.2179 43.1281 38.2179 43.0882 38.1617L41.4889 35.9034C41.442 35.8372 41.4894 35.7456 41.5705 35.7456H44.7692C44.8503 35.7456 44.8977 35.8372 44.8508 35.9034L43.2515 38.1617Z" fill="#656D78"/>
<rect x="25.7436" y="23.5" width="3.375" height="12.375" fill="#656D78"/>
<rect x="25.7436" y="26.875" width="3.375" height="2.25" fill="#434A54"/>
<path d="M27.5127 38.1617C27.4729 38.2179 27.3894 38.2179 27.3495 38.1617L25.7502 35.9034C25.7033 35.8372 25.7506 35.7456 25.8318 35.7456H29.0304C29.1116 35.7456 29.1589 35.8372 29.112 35.9034L27.5127 38.1617Z" fill="#656D78"/>
<circle cx="35.3061" cy="13.9375" r="3.5625" stroke="#434A54" stroke-width="0.75"/>
<rect x="21.2436" y="13.375" width="28.125" height="11.25" rx="3" fill="#E9573F"/>
<rect x="35.3061" y="15.8181" width="4.5" height="4.5" rx="1" transform="rotate(45 35.3061 15.8181)" fill="#FFD2A6"/>
<path d="M17.176 41.792C19.656 41.792 20.896 40.904 20.896 39.128C20.896 37.832 20.592 37.016 19.984 36.68C19.392 36.328 18.048 36.152 15.952 36.152L15.856 41.744C16.4 41.776 16.84 41.792 17.176 41.792ZM17.032 34.184C18.264 34.152 19.136 33.992 19.648 33.704C20.16 33.416 20.416 32.816 20.416 31.904C20.416 30.976 20.12 30.36 19.528 30.056C18.936 29.752 18.04 29.6 16.84 29.6H15.976C15.944 31.616 15.928 33.136 15.928 34.16L17.032 34.184ZM17.056 44.024H11.128L10.912 42.704C11.744 42.368 12.416 42.136 12.928 42.008C12.928 41.96 12.856 37.728 12.712 29.312C12.456 29.248 11.792 29.04 10.72 28.688L10.912 27.224H17.56C19.464 27.224 20.944 27.592 22 28.328C23.056 29.064 23.584 30.128 23.584 31.52C23.584 32.192 23.4 32.92 23.032 33.704C22.68 34.488 22.272 34.952 21.808 35.096C22.512 35.48 23.064 36.016 23.464 36.704C23.864 37.392 24.064 38.184 24.064 39.08C24.064 40.552 23.464 41.744 22.264 42.656C21.064 43.568 19.328 44.024 17.056 44.024ZM37.5732 27.464L37.5972 27.704C37.5972 28.36 37.4932 28.92 37.2852 29.384C37.0772 29.544 36.7492 29.672 36.3012 29.768L40.3092 41.624L42.5892 41.912C42.5892 42.568 42.4052 43.264 42.0372 44H36.2052L35.9892 42.68C36.6612 42.424 37.1012 42.256 37.3092 42.176L36.3492 39.464H30.9492C30.4692 40.888 30.2132 41.632 30.1812 41.696L31.8372 41.912C31.8372 42.248 31.7732 42.64 31.6452 43.088C31.5172 43.52 31.3972 43.824 31.2852 44H25.4532L25.2372 42.68C25.9572 42.376 26.6052 42.152 27.1812 42.008L31.2132 29.672C30.1412 29.512 29.3332 29.304 28.7892 29.048C28.7892 28.584 28.8612 28.176 29.0052 27.824C29.3412 27.712 30.1252 27.584 31.3572 27.44C32.6052 27.28 33.7892 27.2 34.9092 27.2C36.0452 27.2 36.9332 27.288 37.5732 27.464ZM34.4772 34.064L33.7812 30.896H33.5412L32.7732 34.208L31.6452 37.208H35.6532L34.4772 34.064ZM50.4914 44.312C48.3154 44.312 46.5794 43.576 45.2834 42.104C43.9874 40.632 43.3394 38.456 43.3394 35.576C43.3394 32.696 43.8994 30.536 45.0194 29.096C46.1554 27.64 47.9874 26.912 50.5154 26.912C51.5874 26.912 52.6114 27.056 53.5874 27.344C54.5794 27.632 55.2514 27.88 55.6034 28.088C55.9554 28.28 56.2354 28.456 56.4434 28.616C56.4434 29.64 56.3154 30.776 56.0594 32.024C55.6434 32.216 55.2274 32.312 54.8114 32.312C54.4114 32.312 54.0674 32.296 53.7794 32.264L53.2754 29.768C52.5714 29.576 51.8834 29.48 51.2114 29.48C50.2674 29.48 49.0914 29.672 47.6834 30.056C46.9794 31.464 46.6274 33.176 46.6274 35.192C46.6274 39.608 47.9234 41.816 50.5154 41.816C51.8114 41.816 52.8434 41.6 53.6114 41.168C53.6434 40.336 53.6754 39.056 53.7074 37.328L51.6914 36.704L51.8834 35.24H57.6914C57.8834 35.592 58.0274 36.224 58.1234 37.136C57.5794 37.248 56.9954 37.328 56.3714 37.376C56.4674 39.44 56.5154 41.216 56.5154 42.704C56.0514 43.008 55.2114 43.352 53.9954 43.736C52.7794 44.12 51.6114 44.312 50.4914 44.312Z" fill="#FF9228"/>
</svg>
