<svg width="146" height="118" viewBox="0 0 146 118" fill="none" xmlns="http://www.w3.org/2000/svg">
<g clip-path="url(#clip0_66_36)">
<rect width="146" height="118" rx="5" fill="#282828"/>
<path d="M6.688 6.848C6.976 6.34667 7.40267 5.93067 7.968 5.6C8.544 5.25867 9.21067 5.088 9.968 5.088C10.7467 5.088 11.4507 5.27467 12.08 5.648C12.72 6.02133 13.2213 6.54933 13.584 7.232C13.9467 7.904 14.128 8.688 14.128 9.584C14.128 10.4693 13.9467 11.2587 13.584 11.952C13.2213 12.6453 12.72 13.184 12.08 13.568C11.4507 13.952 10.7467 14.144 9.968 14.144C9.22133 14.144 8.56 13.9787 7.984 13.648C7.41867 13.3067 6.98667 12.8853 6.688 12.384V18.16H5.232V5.232H6.688V6.848ZM12.64 9.584C12.64 8.92267 12.5067 8.34667 12.24 7.856C11.9733 7.36533 11.6107 6.992 11.152 6.736C10.704 6.48 10.208 6.352 9.664 6.352C9.13067 6.352 8.63467 6.48533 8.176 6.752C7.728 7.008 7.36533 7.38667 7.088 7.888C6.82133 8.37867 6.688 8.94933 6.688 9.6C6.688 10.2613 6.82133 10.8427 7.088 11.344C7.36533 11.8347 7.728 12.2133 8.176 12.48C8.63467 12.736 9.13067 12.864 9.664 12.864C10.208 12.864 10.704 12.736 11.152 12.48C11.6107 12.2133 11.9733 11.8347 12.24 11.344C12.5067 10.8427 12.64 10.256 12.64 9.584ZM19.8685 14.144C19.0472 14.144 18.3005 13.9573 17.6285 13.584C16.9672 13.2107 16.4445 12.6827 16.0605 12C15.6872 11.3067 15.5005 10.5067 15.5005 9.6C15.5005 8.704 15.6925 7.91467 16.0765 7.232C16.4712 6.53867 17.0045 6.01067 17.6765 5.648C18.3485 5.27467 19.1005 5.088 19.9325 5.088C20.7645 5.088 21.5165 5.27467 22.1885 5.648C22.8605 6.01067 23.3885 6.53333 23.7725 7.216C24.1672 7.89867 24.3645 8.69333 24.3645 9.6C24.3645 10.5067 24.1618 11.3067 23.7565 12C23.3618 12.6827 22.8232 13.2107 22.1405 13.584C21.4578 13.9573 20.7005 14.144 19.8685 14.144ZM19.8685 12.864C20.3912 12.864 20.8818 12.7413 21.3405 12.496C21.7992 12.2507 22.1672 11.8827 22.4445 11.392C22.7325 10.9013 22.8765 10.304 22.8765 9.6C22.8765 8.896 22.7378 8.29867 22.4605 7.808C22.1832 7.31733 21.8205 6.95467 21.3725 6.72C20.9245 6.47467 20.4392 6.352 19.9165 6.352C19.3832 6.352 18.8925 6.47467 18.4445 6.72C18.0072 6.95467 17.6552 7.31733 17.3885 7.808C17.1218 8.29867 16.9885 8.896 16.9885 9.6C16.9885 10.3147 17.1165 10.9173 17.3725 11.408C17.6392 11.8987 17.9912 12.2667 18.4285 12.512C18.8658 12.7467 19.3458 12.864 19.8685 12.864ZM27.7349 6.848C28.0229 6.34667 28.4495 5.93067 29.0149 5.6C29.5909 5.25867 30.2575 5.088 31.0149 5.088C31.7935 5.088 32.4975 5.27467 33.1269 5.648C33.7669 6.02133 34.2682 6.54933 34.6309 7.232C34.9935 7.904 35.1749 8.688 35.1749 9.584C35.1749 10.4693 34.9935 11.2587 34.6309 11.952C34.2682 12.6453 33.7669 13.184 33.1269 13.568C32.4975 13.952 31.7935 14.144 31.0149 14.144C30.2682 14.144 29.6069 13.9787 29.0309 13.648C28.4655 13.3067 28.0335 12.8853 27.7349 12.384V18.16H26.2789V5.232H27.7349V6.848ZM33.6869 9.584C33.6869 8.92267 33.5535 8.34667 33.2869 7.856C33.0202 7.36533 32.6575 6.992 32.1989 6.736C31.7509 6.48 31.2549 6.352 30.7109 6.352C30.1775 6.352 29.6815 6.48533 29.2229 6.752C28.7749 7.008 28.4122 7.38667 28.1349 7.888C27.8682 8.37867 27.7349 8.94933 27.7349 9.6C27.7349 10.2613 27.8682 10.8427 28.1349 11.344C28.4122 11.8347 28.7749 12.2133 29.2229 12.48C29.6815 12.736 30.1775 12.864 30.7109 12.864C31.2549 12.864 31.7509 12.736 32.1989 12.48C32.6575 12.2133 33.0202 11.8347 33.2869 11.344C33.5535 10.8427 33.6869 10.256 33.6869 9.584ZM44.8674 5.232V14H43.4114V12.704C43.134 13.152 42.7447 13.504 42.2434 13.76C41.7527 14.0053 41.2087 14.128 40.6114 14.128C39.9287 14.128 39.3154 13.9893 38.7714 13.712C38.2274 13.424 37.7954 12.9973 37.4754 12.432C37.166 11.8667 37.0114 11.1787 37.0114 10.368V5.232H38.4514V10.176C38.4514 11.04 38.67 11.7067 39.1074 12.176C39.5447 12.6347 40.142 12.864 40.8994 12.864C41.678 12.864 42.2914 12.624 42.7394 12.144C43.1874 11.664 43.4114 10.9653 43.4114 10.048V5.232H44.8674ZM48.7818 2.16V14H47.3258V2.16H48.7818ZM50.7193 9.584C50.7193 8.688 50.9006 7.904 51.2633 7.232C51.6259 6.54933 52.1219 6.02133 52.7513 5.648C53.3913 5.27467 54.1006 5.088 54.8793 5.088C55.6473 5.088 56.3139 5.25333 56.8793 5.584C57.4446 5.91467 57.8659 6.33067 58.1433 6.832V5.232H59.6153V14H58.1433V12.368C57.8553 12.88 57.4233 13.3067 56.8473 13.648C56.2819 13.9787 55.6206 14.144 54.8633 14.144C54.0846 14.144 53.3806 13.952 52.7513 13.568C52.1219 13.184 51.6259 12.6453 51.2633 11.952C50.9006 11.2587 50.7193 10.4693 50.7193 9.584ZM58.1433 9.6C58.1433 8.93867 58.0099 8.36267 57.7433 7.872C57.4766 7.38133 57.1139 7.008 56.6553 6.752C56.2073 6.48533 55.7113 6.352 55.1673 6.352C54.6233 6.352 54.1273 6.48 53.6793 6.736C53.2313 6.992 52.8739 7.36533 52.6073 7.856C52.3406 8.34667 52.2073 8.92267 52.2073 9.584C52.2073 10.256 52.3406 10.8427 52.6073 11.344C52.8739 11.8347 53.2313 12.2133 53.6793 12.48C54.1273 12.736 54.6233 12.864 55.1673 12.864C55.7113 12.864 56.2073 12.736 56.6553 12.48C57.1139 12.2133 57.4766 11.8347 57.7433 11.344C58.0099 10.8427 58.1433 10.2613 58.1433 9.6ZM63.5318 6.656C63.7878 6.15467 64.1504 5.76533 64.6198 5.488C65.0998 5.21067 65.6811 5.072 66.3638 5.072V6.576H65.9798C64.3478 6.576 63.5318 7.46133 63.5318 9.232V14H62.0758V5.232H63.5318V6.656ZM83.9901 5.232L81.2541 14H79.7501L77.6381 7.04L75.5261 14H74.0221L71.2701 5.232H72.7581L74.7741 12.592L76.9501 5.232H78.4381L80.5661 12.608L82.5501 5.232H83.9901ZM93.4351 9.28C93.4351 9.55733 93.4191 9.85067 93.3871 10.16H86.3791C86.4325 11.024 86.7258 11.7013 87.2591 12.192C87.8031 12.672 88.4591 12.912 89.2271 12.912C89.8565 12.912 90.3791 12.768 90.7951 12.48C91.2218 12.1813 91.5205 11.7867 91.6911 11.296H93.2591C93.0245 12.1387 92.5551 12.8267 91.8511 13.36C91.1471 13.8827 90.2725 14.144 89.2271 14.144C88.3951 14.144 87.6485 13.9573 86.9871 13.584C86.3365 13.2107 85.8245 12.6827 85.4511 12C85.0778 11.3067 84.8911 10.5067 84.8911 9.6C84.8911 8.69333 85.0725 7.89867 85.4351 7.216C85.7978 6.53333 86.3045 6.01067 86.9551 5.648C87.6165 5.27467 88.3738 5.088 89.2271 5.088C90.0591 5.088 90.7951 5.26933 91.4351 5.632C92.0751 5.99467 92.5658 6.496 92.9071 7.136C93.2591 7.76533 93.4351 8.48 93.4351 9.28ZM91.9311 8.976C91.9311 8.42133 91.8085 7.94667 91.5631 7.552C91.3178 7.14667 90.9818 6.84267 90.5551 6.64C90.1391 6.42667 89.6751 6.32 89.1631 6.32C88.4271 6.32 87.7978 6.55467 87.2751 7.024C86.7631 7.49333 86.4698 8.144 86.3951 8.976H91.9311ZM96.813 6.864C97.1117 6.34133 97.549 5.91467 98.125 5.584C98.701 5.25333 99.357 5.088 100.093 5.088C100.882 5.088 101.592 5.27467 102.221 5.648C102.85 6.02133 103.346 6.54933 103.709 7.232C104.072 7.904 104.253 8.688 104.253 9.584C104.253 10.4693 104.072 11.2587 103.709 11.952C103.346 12.6453 102.845 13.184 102.205 13.568C101.576 13.952 100.872 14.144 100.093 14.144C99.3357 14.144 98.669 13.9787 98.093 13.648C97.5277 13.3173 97.101 12.896 96.813 12.384V14H95.357V2.16H96.813V6.864ZM102.765 9.584C102.765 8.92267 102.632 8.34667 102.365 7.856C102.098 7.36533 101.736 6.992 101.277 6.736C100.829 6.48 100.333 6.352 99.789 6.352C99.2557 6.352 98.7597 6.48533 98.301 6.752C97.853 7.008 97.4903 7.38667 97.213 7.888C96.9463 8.37867 96.813 8.94933 96.813 9.6C96.813 10.2613 96.9463 10.8427 97.213 11.344C97.4903 11.8347 97.853 12.2133 98.301 12.48C98.7597 12.736 99.2557 12.864 99.789 12.864C100.333 12.864 100.829 12.736 101.277 12.48C101.736 12.2133 102.098 11.8347 102.365 11.344C102.632 10.8427 102.765 10.256 102.765 9.584ZM109.274 14.144C108.602 14.144 107.999 14.032 107.466 13.808C106.932 13.5733 106.511 13.2533 106.202 12.848C105.892 12.432 105.722 11.9573 105.69 11.424H107.194C107.236 11.8613 107.439 12.2187 107.802 12.496C108.175 12.7733 108.66 12.912 109.258 12.912C109.812 12.912 110.25 12.7893 110.57 12.544C110.89 12.2987 111.05 11.9893 111.05 11.616C111.05 11.232 110.879 10.9493 110.538 10.768C110.196 10.576 109.668 10.3893 108.954 10.208C108.303 10.0373 107.77 9.86667 107.354 9.696C106.948 9.51467 106.596 9.25333 106.298 8.912C106.01 8.56 105.866 8.10133 105.866 7.536C105.866 7.088 105.999 6.67733 106.266 6.304C106.532 5.93067 106.911 5.63733 107.402 5.424C107.892 5.2 108.452 5.088 109.082 5.088C110.052 5.088 110.836 5.33333 111.434 5.824C112.031 6.31467 112.351 6.98667 112.394 7.84H110.938C110.906 7.38133 110.719 7.01333 110.378 6.736C110.047 6.45867 109.599 6.32 109.034 6.32C108.511 6.32 108.095 6.432 107.786 6.656C107.476 6.88 107.322 7.17333 107.322 7.536C107.322 7.824 107.412 8.064 107.594 8.256C107.786 8.43733 108.02 8.58667 108.298 8.704C108.586 8.81067 108.98 8.93333 109.482 9.072C110.111 9.24267 110.623 9.41333 111.018 9.584C111.412 9.744 111.748 9.98933 112.026 10.32C112.314 10.6507 112.463 11.0827 112.474 11.616C112.474 12.096 112.34 12.528 112.074 12.912C111.807 13.296 111.428 13.6 110.938 13.824C110.458 14.0373 109.903 14.144 109.274 14.144ZM115.281 3.808C115.004 3.808 114.769 3.712 114.577 3.52C114.385 3.328 114.289 3.09333 114.289 2.816C114.289 2.53867 114.385 2.304 114.577 2.112C114.769 1.92 115.004 1.824 115.281 1.824C115.548 1.824 115.772 1.92 115.953 2.112C116.145 2.304 116.241 2.53867 116.241 2.816C116.241 3.09333 116.145 3.328 115.953 3.52C115.772 3.712 115.548 3.808 115.281 3.808ZM115.985 5.232V14H114.529V5.232H115.985ZM120.242 6.432V11.6C120.242 12.0267 120.333 12.3307 120.514 12.512C120.696 12.6827 121.01 12.768 121.458 12.768H122.53V14H121.218C120.408 14 119.8 13.8133 119.394 13.44C118.989 13.0667 118.786 12.4533 118.786 11.6V6.432H117.65V5.232H118.786V3.024H120.242V5.232H122.53V6.432H120.242ZM132.295 9.28C132.295 9.55733 132.279 9.85067 132.247 10.16H125.239C125.292 11.024 125.585 11.7013 126.119 12.192C126.663 12.672 127.319 12.912 128.087 12.912C128.716 12.912 129.239 12.768 129.655 12.48C130.081 12.1813 130.38 11.7867 130.551 11.296H132.119C131.884 12.1387 131.415 12.8267 130.711 13.36C130.007 13.8827 129.132 14.144 128.087 14.144C127.255 14.144 126.508 13.9573 125.847 13.584C125.196 13.2107 124.684 12.6827 124.311 12C123.937 11.3067 123.751 10.5067 123.751 9.6C123.751 8.69333 123.932 7.89867 124.295 7.216C124.657 6.53333 125.164 6.01067 125.815 5.648C126.476 5.27467 127.233 5.088 128.087 5.088C128.919 5.088 129.655 5.26933 130.295 5.632C130.935 5.99467 131.425 6.496 131.767 7.136C132.119 7.76533 132.295 8.48 132.295 9.28ZM130.791 8.976C130.791 8.42133 130.668 7.94667 130.423 7.552C130.177 7.14667 129.841 6.84267 129.415 6.64C128.999 6.42667 128.535 6.32 128.023 6.32C127.287 6.32 126.657 6.55467 126.135 7.024C125.623 7.49333 125.329 8.144 125.255 8.976H130.791ZM137.32 14.144C136.648 14.144 136.046 14.032 135.512 13.808C134.979 13.5733 134.558 13.2533 134.248 12.848C133.939 12.432 133.768 11.9573 133.736 11.424H135.24C135.283 11.8613 135.486 12.2187 135.848 12.496C136.222 12.7733 136.707 12.912 137.304 12.912C137.859 12.912 138.296 12.7893 138.616 12.544C138.936 12.2987 139.096 11.9893 139.096 11.616C139.096 11.232 138.926 10.9493 138.584 10.768C138.243 10.576 137.715 10.3893 137 10.208C136.35 10.0373 135.816 9.86667 135.4 9.696C134.995 9.51467 134.643 9.25333 134.344 8.912C134.056 8.56 133.912 8.10133 133.912 7.536C133.912 7.088 134.046 6.67733 134.312 6.304C134.579 5.93067 134.958 5.63733 135.448 5.424C135.939 5.2 136.499 5.088 137.128 5.088C138.099 5.088 138.883 5.33333 139.48 5.824C140.078 6.31467 140.398 6.98667 140.44 7.84H138.984C138.952 7.38133 138.766 7.01333 138.424 6.736C138.094 6.45867 137.646 6.32 137.08 6.32C136.558 6.32 136.142 6.432 135.832 6.656C135.523 6.88 135.368 7.17333 135.368 7.536C135.368 7.824 135.459 8.064 135.64 8.256C135.832 8.43733 136.067 8.58667 136.344 8.704C136.632 8.81067 137.027 8.93333 137.528 9.072C138.158 9.24267 138.67 9.41333 139.064 9.584C139.459 9.744 139.795 9.98933 140.072 10.32C140.36 10.6507 140.51 11.0827 140.52 11.616C140.52 12.096 140.387 12.528 140.12 12.912C139.854 13.296 139.475 13.6 138.984 13.824C138.504 14.0373 137.95 14.144 137.32 14.144Z" fill="white"/>
<rect x="98" y="23" width="44" height="44" rx="2" fill="black"/>
<path d="M139.252 45.4275C139.252 43.8447 139.121 42.6897 138.837 41.4919H120.395V48.6358H131.22C131.002 50.4112 129.823 53.0847 127.204 54.8813L127.167 55.1205L132.999 59.5475L133.403 59.5869C137.113 56.2289 139.252 51.288 139.252 45.4275Z" fill="#4285F4"/>
<path d="M120.394 64.2497C125.697 64.2497 130.149 62.5385 133.402 59.5868L127.203 54.8812C125.544 56.0148 123.318 56.8062 120.394 56.8062C115.199 56.8062 110.791 53.4481 109.219 48.8068L108.989 48.8259L102.925 53.4246L102.846 53.6406C106.076 59.9289 112.711 64.2497 120.394 64.2497Z" fill="#34A853"/>
<path d="M109.22 48.8074C108.805 47.6096 108.565 46.3262 108.565 45.0001C108.565 43.6739 108.805 42.3907 109.198 41.1929L109.187 40.9377L103.047 36.2653L102.847 36.3589C101.515 38.9684 100.751 41.8987 100.751 45.0001C100.751 48.1014 101.515 51.0317 102.847 53.6412L109.22 48.8074Z" fill="#FBBC05"/>
<path d="M120.394 33.1933C124.082 33.1933 126.57 34.7547 127.989 36.0595L133.533 30.755C130.128 27.6536 125.697 25.75 120.394 25.75C112.711 25.75 106.076 30.0705 102.846 36.3588L109.197 41.1928C110.791 36.5514 115.199 33.1933 120.394 33.1933Z" fill="#EB4335"/>
<rect x="4" y="23" width="44" height="44" rx="2" fill="black"/>
<path fill-rule="evenodd" clip-rule="evenodd" d="M27.5228 46.9288C26.9816 48.0097 26.0535 48.7056 25.0492 48.9403C24.897 48.9403 24.6644 49.0165 24.4319 49.0165C22.7342 49.0165 21.7299 47.7029 21.7299 45.7718C21.7299 43.2971 23.1972 42.14 25.0492 41.5965C26.0535 41.3659 27.2141 41.2876 28.3727 41.2876V42.2162C28.3727 43.9929 28.4488 45.3826 27.5228 46.9288ZM28.3727 37.7362C27.3684 37.8124 26.2078 37.8885 25.0492 38.0409C23.2733 38.2756 21.4974 38.5844 20.0322 39.2803C17.1738 40.4394 15.2415 42.9121 15.2415 46.5418C15.2415 51.1041 18.176 53.4203 21.8863 53.4203C23.121 53.4203 24.1253 53.2638 25.0492 53.0353C26.5206 52.57 27.7533 51.7197 29.2205 50.1735C30.0704 51.3326 30.305 51.8762 31.7702 53.1115C32.1571 53.2638 32.5439 53.2638 32.8506 53.0353C33.7787 52.2612 35.4023 50.8694 36.2501 50.0974C36.637 49.7885 36.5609 49.3232 36.3263 48.9403C35.4784 47.8574 34.6265 46.9288 34.6265 44.8432V37.8885C34.6265 34.9526 34.8611 32.2474 32.6983 30.24C30.9224 28.6197 28.1401 28 25.9773 28H25.0492C21.1126 28.2285 16.9434 29.9291 16.0132 34.7982C15.8589 35.4179 16.3239 35.6485 16.6326 35.7247L20.9582 36.2662C21.4212 36.1879 21.6538 35.8009 21.7299 35.4179C22.1147 33.7174 23.5059 32.8671 25.0492 32.7106H25.36C26.2881 32.7106 27.2923 33.0976 27.8315 33.8718C28.4488 34.7982 28.3727 36.0356 28.3727 37.1185V37.7362Z" fill="white"/>
<path fill-rule="evenodd" clip-rule="evenodd" d="M43.9959 54.2109V54.2088C43.9794 53.8444 43.9033 53.5665 43.751 53.3359L43.7345 53.3133L43.716 53.2906C43.5617 53.1218 43.4135 53.058 43.253 52.988C42.7735 52.8027 42.0759 52.7038 41.2363 52.7018C40.6334 52.7018 39.9687 52.7594 39.2999 52.9056L39.2978 52.8603L38.6249 53.0847L38.6125 53.0909L38.2318 53.2144V53.2309C37.7853 53.4162 37.3799 53.6468 37.0033 53.9206C36.7687 54.0956 36.5753 54.3283 36.565 54.6844C36.5588 54.878 36.6576 55.1003 36.8201 55.2321C36.9827 55.3638 37.172 55.4091 37.3387 55.4091C37.3778 55.4091 37.4149 55.4071 37.4478 55.4009L37.4807 55.3988L37.5054 55.3947C37.8347 55.3247 38.3142 55.2774 38.8759 55.1991C39.3575 55.1456 39.8678 55.1065 40.3103 55.1065C40.6231 55.1044 40.905 55.1271 41.0984 55.1683C41.1951 55.1888 41.2672 55.2135 41.3063 55.2341C41.3207 55.2383 41.331 55.2444 41.3371 55.2485C41.3454 55.2753 41.3577 55.3453 41.3557 55.4421C41.3598 55.8127 41.2034 56.5003 40.9873 57.1715C40.7774 57.8427 40.5222 58.5159 40.3535 58.9627C40.3123 59.0656 40.2856 59.1788 40.2856 59.3024C40.2815 59.4815 40.3555 59.6997 40.5119 59.8438C40.6642 59.988 40.8618 60.0456 41.0264 60.0456H41.0346C41.2816 60.0435 41.4915 59.9447 41.6726 59.8027C43.3806 58.2668 43.9753 55.8127 44 54.4312L43.9959 54.2109ZM38.9315 56.3397C38.7566 56.3377 38.5776 56.3788 38.4109 56.4571C38.2236 56.5312 38.0322 56.6177 37.8511 56.6938L37.5857 56.805L37.24 56.943V56.9471C33.4844 58.4706 29.5395 59.3641 25.8888 59.4424C25.7551 59.4465 25.6193 59.4465 25.4896 59.4465C19.7482 59.4506 15.0645 56.7865 10.3397 54.1615C10.1751 54.075 10.0043 54.0297 9.83964 54.0297C9.62768 54.0297 9.40955 54.11 9.25109 54.2583C9.09264 54.4085 8.99798 54.6247 9.00003 54.845C8.99798 55.1312 9.15231 55.3947 9.36839 55.5656C13.8031 59.4177 18.6637 62.9959 25.2015 63C25.3291 63 25.4587 62.9959 25.5884 62.9938C29.7473 62.9012 34.4495 61.495 38.1001 59.2015L38.1228 59.1871C38.6002 58.9009 39.0776 58.5756 39.5283 58.2153C39.8082 58.0074 40.0016 57.6821 40.0016 57.3444C39.9892 56.7453 39.481 56.3397 38.9315 56.3397Z" fill="#FF9A00"/>
<rect x="4" y="70" width="44" height="44" rx="2" fill="black"/>
<path d="M36.2857 74H15.7143C11.4538 74 8 77.4538 8 81.7143V102.286C8 106.546 11.4538 110 15.7143 110H36.2857C40.5462 110 44 106.546 44 102.286V81.7143C44 77.4538 40.5462 74 36.2857 74Z" fill="url(#paint0_radial_66_36)"/>
<path d="M36.2857 74H15.7143C11.4538 74 8 77.4538 8 81.7143V102.286C8 106.546 11.4538 110 15.7143 110H36.2857C40.5462 110 44 106.546 44 102.286V81.7143C44 77.4538 40.5462 74 36.2857 74Z" fill="url(#paint1_radial_66_36)"/>
<path d="M36.2857 74H15.7143C11.4538 74 8 77.4538 8 81.7143V102.286C8 106.546 11.4538 110 15.7143 110H36.2857C40.5462 110 44 106.546 44 102.286V81.7143C44 77.4538 40.5462 74 36.2857 74Z" fill="url(#paint2_radial_66_36)"/>
<path d="M35 85C35 86.1045 34.1045 87 33 87C31.8955 87 31 86.1045 31 85C31 83.8954 31.8955 83 33 83C34.1045 83 35 83.8954 35 85Z" fill="white"/>
<path fill-rule="evenodd" clip-rule="evenodd" d="M25.5 99C29.0898 99 32 96.0898 32 92.5C32 88.9102 29.0898 86 25.5 86C21.9102 86 19 88.9102 19 92.5C19 96.0898 21.9102 99 25.5 99ZM25.5 96.4C27.654 96.4 29.4 94.654 29.4 92.5C29.4 90.346 27.654 88.6 25.5 88.6C23.346 88.6 21.6 90.346 21.6 92.5C21.6 94.654 23.346 96.4 25.5 96.4Z" fill="white"/>
<path fill-rule="evenodd" clip-rule="evenodd" d="M13 91.48C13 87.1116 13 84.9273 13.8501 83.2589C14.598 81.7912 15.7912 80.598 17.2589 79.8501C18.9273 79 21.1116 79 25.48 79H26.52C30.8884 79 33.0726 79 34.7411 79.8501C36.2088 80.598 37.402 81.7912 38.1498 83.2589C39 84.9273 39 87.1116 39 91.48V92.52C39 96.8884 39 99.0726 38.1498 100.741C37.402 102.209 36.2088 103.402 34.7411 104.15C33.0726 105 30.8884 105 26.52 105H25.48C21.1116 105 18.9273 105 17.2589 104.15C15.7912 103.402 14.598 102.209 13.8501 100.741C13 99.0726 13 96.8884 13 92.52V91.48ZM25.48 81.6H26.52C28.7472 81.6 30.261 81.602 31.4313 81.6976C32.5712 81.7908 33.1542 81.9596 33.5608 82.1668C34.5392 82.6653 35.3346 83.4608 35.8332 84.4392C36.0404 84.8458 36.2093 85.4288 36.3024 86.5687C36.3979 87.739 36.4 89.2528 36.4 91.48V92.52C36.4 94.7472 36.3979 96.261 36.3024 97.4313C36.2093 98.5712 36.0404 99.1542 35.8332 99.5608C35.3346 100.539 34.5392 101.335 33.5608 101.833C33.1542 102.04 32.5712 102.209 31.4313 102.302C30.261 102.398 28.7472 102.4 26.52 102.4H25.48C23.2528 102.4 21.739 102.398 20.5687 102.302C19.4288 102.209 18.8458 102.04 18.4392 101.833C17.4608 101.335 16.6653 100.539 16.1668 99.5608C15.9596 99.1542 15.7908 98.5712 15.6976 97.4313C15.602 96.261 15.6 94.7472 15.6 92.52V91.48C15.6 89.2528 15.602 87.739 15.6976 86.5687C15.7908 85.4288 15.9596 84.8458 16.1668 84.4392C16.6653 83.4608 17.4608 82.6653 18.4392 82.1668C18.8458 81.9596 19.4288 81.7908 20.5687 81.6976C21.739 81.602 23.2528 81.6 25.48 81.6Z" fill="white"/>
<rect x="51" y="70" width="44" height="44" rx="2" fill="black"/>
<path d="M88.125 93.375H74.375V107.125H88.125V93.375Z" fill="#FEBA08"/>
<path d="M71.625 93.375H57.875V107.125H71.625V93.375Z" fill="#05A6F0"/>
<path d="M88.125 76.875H74.375V90.625H88.125V76.875Z" fill="#80BC06"/>
<path d="M71.625 76.875H57.875V90.625H71.625V76.875Z" fill="#F25325"/>
<rect x="98" y="70" width="44" height="44" rx="2" fill="black"/>
<path fill-rule="evenodd" clip-rule="evenodd" d="M140 79.8474C138.567 80.5 137.024 80.9413 135.406 81.1385C137.058 80.1244 138.327 78.5164 138.924 76.6009C137.377 77.5399 135.667 78.223 133.84 78.5892C132.384 76.9953 130.303 76 128 76C123.585 76 120.002 79.6737 120.002 84.2042C120.002 84.8474 120.071 85.4718 120.208 86.0728C113.558 85.7301 107.664 82.4671 103.715 77.4976C103.026 78.7136 102.632 80.1244 102.632 81.6268C102.632 84.4718 104.045 86.9836 106.192 88.4554C104.882 88.4155 103.646 88.0423 102.566 87.4319V87.5329C102.566 91.5094 105.324 94.8263 108.987 95.5775C108.316 95.7699 107.609 95.8662 106.878 95.8662C106.363 95.8662 105.86 95.8169 105.372 95.7207C106.391 98.9789 109.344 101.352 112.846 101.415C110.108 103.617 106.656 104.93 102.909 104.93C102.264 104.93 101.625 104.892 101 104.817C104.541 107.141 108.749 108.5 113.265 108.5C127.984 108.5 136.031 96 136.031 85.1573C136.031 84.8005 136.024 84.4437 136.01 84.0939C137.574 82.9366 138.931 81.493 140 79.8474Z" fill="#00AAEC"/>
<path d="M51 25C51 23.8954 51.8954 23 53 23H93C94.1046 23 95 23.8954 95 25V65C95 66.1046 94.1046 67 93 67H53C51.8954 67 51 66.1046 51 65V25Z" fill="black"/>
<path d="M75.3597 30.0967L75.3481 36.6926L75.3364 43.2884L74.7938 41.7572C74.7936 41.7567 74.7929 41.7547 74.7927 41.7542L74.0915 56.4383C74.7809 58.3853 75.1503 59.4246 75.1545 59.4288C75.1599 59.4342 75.5528 59.4579 76.0276 59.4815C77.4661 59.5529 79.2487 59.7058 80.601 59.8739C80.9141 59.9128 81.1836 59.9327 81.1998 59.9181C81.216 59.9036 81.2249 53.1878 81.2194 44.9942L81.2096 30.0967H78.2846H75.3597Z" fill="#B1060F"/>
<path d="M64.7789 30.077V44.9896C64.7789 53.1915 64.7869 59.9103 64.7967 59.9201C64.8065 59.9299 65.3145 59.882 65.9255 59.8135C66.5365 59.7451 67.3809 59.66 67.802 59.6245C68.4478 59.5699 70.3759 59.446 70.5992 59.4446C70.6641 59.4442 70.6683 59.1091 70.6777 53.1283L70.6876 46.8123L71.1542 48.1323C71.2263 48.3363 71.2489 48.4 71.3191 48.5988L72.0202 33.9183C71.8716 33.4984 71.9495 33.7188 71.7793 33.2375C71.2065 31.618 70.7204 30.2444 70.6991 30.185L70.6603 30.077H67.7196H64.7789Z" fill="#B1060F"/>
<path d="M64.7789 30.077L64.7789 38.4479L70.6757 54.0902C70.6764 53.7317 70.6771 53.538 70.6777 53.1283L70.6876 46.8123L71.1542 48.1323C73.7511 55.4806 75.1463 59.4205 75.1545 59.4287C75.1599 59.4341 75.5528 59.4578 76.0276 59.4814C77.4661 59.5528 79.2487 59.7057 80.601 59.8738C80.9141 59.9127 81.1836 59.9326 81.1998 59.9181C81.211 59.9081 81.2182 56.6152 81.2202 51.9698L75.3509 35.0957L75.3481 36.6925L75.3364 43.2883L74.7938 41.7571C74.2635 40.261 73.9095 39.2605 71.7793 33.2375C71.2065 31.618 70.7204 30.2444 70.6991 30.185L70.6603 30.077H67.7196H64.7789Z" fill="url(#paint3_radial_66_36)"/>
<path d="M64.7791 30.077L70.6877 46.82V46.8123L71.1542 48.1323C73.7511 55.4806 75.1463 59.4205 75.1545 59.4287C75.16 59.4341 75.5529 59.4578 76.0277 59.4814C77.4662 59.5528 79.2488 59.7057 80.6011 59.8738C80.9126 59.9125 81.1806 59.9323 81.1994 59.9182L75.3365 43.2852V43.2883L74.7938 41.7571C74.2636 40.261 73.9096 39.2605 71.7793 33.2375C71.2065 31.618 70.7205 30.2444 70.6992 30.185L70.6604 30.077H67.7197H64.7791Z" fill="#E50914"/>
<path d="M75.3597 30.0967L75.3481 36.6926L75.3364 43.2884L74.7938 41.7572C74.7936 41.7567 74.7929 41.7547 74.7927 41.7542L74.0915 56.4383C74.7809 58.3853 75.1503 59.4246 75.1545 59.4288C75.1599 59.4342 75.5528 59.4579 76.0276 59.4815C77.4661 59.5529 79.2487 59.7058 80.601 59.8739C80.9141 59.9128 81.1836 59.9327 81.1998 59.9181C81.216 59.9036 81.2249 53.1878 81.2194 44.9942L81.2096 30.0967H78.2846H75.3597Z" fill="#B1060F"/>
<path d="M64.7789 30.077V44.9896C64.7789 53.1915 64.7869 59.9103 64.7967 59.9201C64.8065 59.9299 65.3145 59.882 65.9255 59.8135C66.5365 59.7451 67.3809 59.66 67.802 59.6245C68.4478 59.5699 70.3759 59.446 70.5992 59.4446C70.6641 59.4442 70.6683 59.1091 70.6777 53.1283L70.6876 46.8123L71.1542 48.1323C71.2263 48.3363 71.2489 48.4 71.3191 48.5988L72.0202 33.9183C71.8716 33.4984 71.9495 33.7188 71.7793 33.2375C71.2065 31.618 70.7204 30.2444 70.6991 30.185L70.6603 30.077H67.7196H64.7789Z" fill="#B1060F"/>
<path d="M64.7789 30.077L64.7789 38.4479L70.6757 54.0902C70.6764 53.7317 70.6771 53.538 70.6777 53.1283L70.6876 46.8123L71.1542 48.1323C73.7511 55.4806 75.1463 59.4205 75.1545 59.4287C75.1599 59.4341 75.5528 59.4578 76.0276 59.4814C77.4661 59.5528 79.2487 59.7057 80.601 59.8738C80.9141 59.9127 81.1836 59.9326 81.1998 59.9181C81.211 59.9081 81.2182 56.6152 81.2202 51.9698L75.3509 35.0957L75.3481 36.6925L75.3364 43.2883L74.7938 41.7571C74.2635 40.261 73.9095 39.2605 71.7793 33.2375C71.2065 31.618 70.7204 30.2444 70.6991 30.185L70.6603 30.077H67.7196H64.7789Z" fill="url(#paint4_radial_66_36)"/>
<path d="M64.7791 30.077L70.6877 46.82V46.8123L71.1542 48.1323C73.7511 55.4806 75.1463 59.4205 75.1545 59.4287C75.16 59.4341 75.5529 59.4578 76.0277 59.4814C77.4662 59.5528 79.2488 59.7057 80.6011 59.8738C80.9126 59.9125 81.1806 59.9323 81.1994 59.9182L75.3365 43.2852V43.2883L74.7938 41.7571C74.2636 40.261 73.9096 39.2605 71.7793 33.2375C71.2065 31.618 70.7205 30.2444 70.6992 30.185L70.6604 30.077H67.7197H64.7791Z" fill="#E50914"/>
<rect x="4" y="20" width="138" height="1" rx="0.5" fill="white"/>
</g>
<defs>
<radialGradient id="paint0_radial_66_36" cx="0" cy="0" r="1" gradientUnits="userSpaceOnUse" gradientTransform="translate(20.8571 101) rotate(-55.3758) scale(32.8109)">
<stop stop-color="#B13589"/>
<stop offset="0.79309" stop-color="#C62F94"/>
<stop offset="1" stop-color="#8A3AC8"/>
</radialGradient>
<radialGradient id="paint1_radial_66_36" cx="0" cy="0" r="1" gradientUnits="userSpaceOnUse" gradientTransform="translate(19.5714 111.286) rotate(-65.1363) scale(29.0497)">
<stop stop-color="#E0E8B7"/>
<stop offset="0.444662" stop-color="#FB8A2E"/>
<stop offset="0.71474" stop-color="#E2425C"/>
<stop offset="1" stop-color="#E2425C" stop-opacity="0"/>
</radialGradient>
<radialGradient id="paint2_radial_66_36" cx="0" cy="0" r="1" gradientUnits="userSpaceOnUse" gradientTransform="translate(6.07143 75.2857) rotate(-8.1301) scale(50.0026 10.695)">
<stop offset="0.156701" stop-color="#406ADC"/>
<stop offset="0.467799" stop-color="#6A45BE"/>
<stop offset="1" stop-color="#6A45BE" stop-opacity="0"/>
</radialGradient>
<radialGradient id="paint3_radial_66_36" cx="0" cy="0" r="1" gradientUnits="userSpaceOnUse" gradientTransform="translate(859.547 839.443) scale(1158.09 1158.09)">
<stop/>
<stop offset="1" stop-opacity="0"/>
</radialGradient>
<radialGradient id="paint4_radial_66_36" cx="0" cy="0" r="1" gradientUnits="userSpaceOnUse" gradientTransform="translate(859.547 839.443) scale(1158.09 1158.09)">
<stop/>
<stop offset="1" stop-opacity="0"/>
</radialGradient>
<clipPath id="clip0_66_36">
<rect width="146" height="118" rx="5" fill="white"/>
</clipPath>
</defs>
</svg>
